<svg version="1.1" id="Layer_1" xmlns="http://www.w3.org/2000/svg" xmlns:xlink="http://www.w3.org/1999/xlink" x="0px" y="0px"
	 width="100%" viewBox="0 0 464 192" enable-background="new 0 0 464 192" xml:space="preserve">
<path fill="#000000" opacity="1.000000" stroke="none" 
	d="
M420.306091,165.950317 
	C415.515594,168.780457 413.174896,167.442932 413.819763,162.046890 
	C415.456879,148.347702 413.805176,134.789322 412.692993,121.197701 
	C412.195587,115.118591 410.110596,109.150139 411.489044,102.882401 
	C409.851715,101.689445 407.965790,102.235771 406.218658,102.251244 
	C382.242798,102.463638 358.267456,102.737465 334.291962,102.994080 
	C333.292480,103.004784 332.276306,103.110619 331.296448,102.971359 
	C328.880524,102.627998 325.151825,103.964668 325.005005,100.048859 
	C324.873474,96.540131 328.667114,96.825462 331.021179,95.980797 
	C332.072632,95.603516 333.328308,95.750092 334.492126,95.737984 
	C369.643677,95.372108 404.795502,95.029152 439.946777,94.640259 
	C443.852783,94.597054 447.659882,95.014313 451.014374,91.576866 
	C453.303986,89.230606 456.709381,91.447334 459.443451,92.425026 
	C460.993958,92.979492 461.489380,94.657372 461.023956,96.239700 
	C460.183228,99.097946 458.023651,100.562660 455.192444,101.043953 
	C446.267456,102.561180 437.255463,102.077240 428.267029,102.189934 
	C424.973236,102.231224 421.635223,101.713615 417.938049,102.721458 
	C418.898041,110.797165 420.190277,118.792885 420.726929,126.839012 
	C421.587982,139.748291 423.589081,152.703201 420.306091,165.950317 
z"/>
<path fill="#000000" opacity="1.000000" stroke="none" 
	d="
M262.487427,125.063026 
	C266.825195,126.029274 270.796631,126.656227 274.600098,127.828308 
	C294.643219,134.004807 299.974884,157.596420 284.685394,172.141769 
	C271.970062,184.238251 247.684784,183.054260 236.778488,170.322083 
	C227.587585,159.592484 230.154297,138.074036 239.028610,128.599274 
	C241.697525,125.749779 245.362793,124.924553 249.067078,124.798782 
	C253.385620,124.652176 257.717529,124.899101 262.487427,125.063026 
M256.363007,132.138702 
	C252.332474,132.661224 247.860260,130.770447 244.308853,133.820389 
	C235.168686,141.669952 236.740189,162.807968 246.852921,169.432678 
	C255.465820,175.074875 271.692810,174.006729 279.210571,167.052155 
	C284.942444,161.749680 286.658051,154.655594 285.359589,147.381607 
	C284.156616,140.642914 279.128845,136.685959 272.477478,134.864914 
	C267.488556,133.499039 262.464966,132.454697 256.363007,132.138702 
z"/>
<path fill="#000000" opacity="1.000000" stroke="none" 
	d="
M56.084915,127.267662 
	C32.504097,123.195808 32.998798,101.520294 42.200226,89.560516 
	C51.317101,77.710640 62.414795,76.609772 73.316071,86.833466 
	C79.872719,92.982567 84.645149,100.287903 84.395836,109.963272 
	C84.154167,119.341789 77.879211,126.474968 68.462669,127.234734 
	C64.501236,127.554367 60.493343,127.298141 56.084915,127.267662 
M76.680634,106.119644 
	C74.241371,97.667648 69.310631,91.334267 60.996124,88.013084 
	C57.754780,86.718346 54.435284,86.467529 51.756020,89.291412 
	C49.240688,91.942528 46.880177,94.763763 45.396782,98.152557 
	C40.416397,109.530167 46.245998,119.119156 58.612679,119.906998 
	C60.597351,120.033440 62.598297,120.022148 64.586983,119.947769 
	C73.799774,119.603165 77.058266,116.108971 76.680634,106.119644 
z"/>
<path fill="#000000" opacity="1.000000" stroke="none" 
	d="
M290.833801,51.315620 
	C292.336884,52.941650 293.476074,54.386921 293.945465,56.206615 
	C294.699463,59.129742 294.446838,61.776375 290.777344,62.135056 
	C287.900055,62.416298 284.268036,63.065201 284.590973,58.184982 
	C284.716064,56.294735 283.907471,54.980015 282.693909,53.790730 
	C273.548096,44.827896 264.395721,35.871719 255.217819,26.941776 
	C254.153656,25.906384 252.978836,24.943956 251.334320,24.681204 
	C249.063599,25.654619 248.781906,27.973179 248.008774,29.911383 
	C242.711731,43.190639 237.811050,56.647114 230.349136,68.945358 
	C229.574631,70.221848 228.840164,71.551117 227.878494,72.677826 
	C226.845337,73.888268 225.428665,74.443283 223.843124,73.684845 
	C222.100937,72.851479 221.495453,71.359154 221.887741,69.545807 
	C222.094421,68.590378 222.510468,67.638306 223.016968,66.795944 
	C231.033890,53.462502 236.314911,38.904613 241.999908,24.526035 
	C242.733063,22.671711 243.473175,20.807152 244.390396,19.040987 
	C247.349579,13.342972 249.053314,13.483469 254.082047,17.177855 
	C267.570282,27.087025 278.084656,40.121525 290.833801,51.315620 
z"/>
<path fill="#000000" opacity="1.000000" stroke="none" 
	d="
M426.610352,42.578651 
	C428.348236,38.017502 429.930725,33.851364 429.949005,29.212456 
	C429.964355,25.316608 428.517426,23.455908 424.454956,23.203766 
	C405.483002,22.026251 386.493469,22.048901 367.501465,22.099127 
	C365.856750,22.103476 364.151978,22.034157 363.092102,23.786234 
	C361.791626,25.936022 359.878540,27.359936 358.054230,24.759794 
	C356.400940,22.403372 355.676147,19.317659 358.568878,17.159298 
	C360.862274,15.448082 363.678406,14.837663 366.595123,14.779581 
	C386.260864,14.387967 405.914429,14.885040 425.549469,15.864793 
	C434.395874,16.306213 437.240570,19.740103 437.377686,28.545721 
	C437.430084,31.914797 437.088623,35.208195 436.071228,38.401009 
	C433.278900,47.163879 429.187134,55.362442 424.926849,63.473286 
	C423.712097,65.785934 421.984100,67.924850 419.000031,66.183083 
	C416.315430,64.616104 417.208862,62.333057 418.309387,60.075485 
	C421.081879,54.388031 423.755157,48.652203 426.610352,42.578651 
z"/>
<path fill="#000000" opacity="1.000000" stroke="none" 
	d="
M218.647385,99.409828 
	C211.366714,99.045555 204.513702,99.740395 197.740433,98.425049 
	C195.883057,98.064354 193.871689,97.990990 193.705521,95.585625 
	C193.508514,92.733803 195.878036,92.550316 197.812302,92.286858 
	C206.948227,91.042450 216.126740,91.916138 225.256088,92.232292 
	C234.917038,92.566872 244.572327,92.625572 254.229675,92.701576 
	C267.224976,92.803871 280.201324,93.123940 293.130341,94.569809 
	C295.621368,94.848381 298.067902,94.705231 300.505646,93.814095 
	C302.553223,93.065598 304.525391,93.411575 305.463562,95.777878 
	C306.407349,98.158295 305.082672,99.487595 303.188904,100.621841 
	C300.296661,102.354103 297.121429,102.461113 293.974182,102.106155 
	C273.228668,99.766357 252.391861,100.466377 231.587021,100.080818 
	C227.428406,100.003754 223.274887,99.651917 218.647385,99.409828 
z"/>
<path fill="#000000" opacity="1.000000" stroke="none" 
	d="
M127.466812,33.852306 
	C131.815338,32.607109 132.349487,35.428722 132.576492,38.180061 
	C133.519882,49.613857 134.382843,61.052956 134.381241,72.541008 
	C134.380249,79.643730 134.468887,79.544312 141.567078,79.908119 
	C146.919678,80.182472 152.117599,81.250076 156.814041,84.061043 
	C158.503067,85.071991 159.926636,86.292336 158.970993,88.452835 
	C158.095261,90.432663 156.356705,90.120491 154.668991,89.613388 
	C154.193466,89.470505 153.684052,89.442108 153.205750,89.306366 
	C146.971939,87.537277 140.711212,85.450722 135.118088,91.663834 
	C134.861557,97.013008 134.591064,102.978157 134.282883,108.941368 
	C134.130417,111.891609 134.550186,115.747704 130.283325,115.609871 
	C126.412041,115.484810 126.804787,111.846802 126.796577,109.027893 
	C126.744240,91.055214 126.775116,73.081963 126.631775,55.110077 
	C126.590721,49.962494 126.011894,44.821064 125.786774,39.672134 
	C125.701233,37.715641 125.413918,35.623699 127.466812,33.852306 
z"/>
<path fill="#000000" opacity="1.000000" stroke="none" 
	d="
M124.522270,168.108749 
	C125.537384,168.459000 126.187416,168.645004 126.772568,168.953903 
	C128.957230,170.107147 130.943085,171.535934 129.721603,174.389221 
	C128.631775,176.934982 126.260475,176.699539 124.098015,176.226044 
	C113.470886,173.898987 102.954742,174.747559 92.465553,177.125397 
	C88.010872,178.135239 84.144424,180.432968 80.129440,182.453476 
	C74.681702,185.194992 71.593353,184.734741 69.616760,180.218536 
	C65.827232,171.560059 64.863640,162.297485 65.293816,152.918243 
	C65.383362,150.965805 66.007011,148.783997 68.527679,148.450500 
	C70.949028,148.130142 72.576225,149.724075 74.068291,151.306442 
	C74.911461,152.200638 75.217621,153.375763 74.464951,154.520493 
	C69.664848,161.820847 75.114365,168.317551 74.945930,176.310791 
	C91.335793,167.767914 107.436951,165.907669 124.522270,168.108749 
z"/>
<path fill="#000000" opacity="1.000000" stroke="none" 
	d="
M107.025421,48.258549 
	C109.610939,52.289692 107.678360,54.139896 104.184608,54.962971 
	C102.430351,55.376244 100.542816,55.330029 98.716850,55.316551 
	C75.393768,55.144398 52.061825,55.429836 28.761496,54.020275 
	C26.478088,53.882137 23.591703,54.401215 23.341965,51.113983 
	C23.121214,48.208290 26.042902,47.880016 27.944454,47.414227 
	C34.181545,45.886433 40.556156,46.860649 46.841213,47.157764 
	C65.663696,48.047558 84.484734,47.654259 103.308182,47.589504 
	C104.444977,47.585594 105.582703,47.854527 107.025421,48.258549 
z"/>
<path fill="#000000" opacity="1.000000" stroke="none" 
	d="
M375.262939,129.008789 
	C375.206940,138.667252 375.168335,147.827393 375.081299,156.987061 
	C375.055664,159.683456 375.125122,162.928482 371.490509,163.028839 
	C367.807648,163.130539 367.709137,159.907089 367.707123,157.193832 
	C367.696716,143.037460 367.734222,128.880997 367.795319,114.724739 
	C367.800293,113.573463 368.039459,112.408417 368.289551,111.276215 
	C368.747620,109.202629 368.782013,106.740189 371.518005,106.198586 
	C373.867249,105.733543 375.126434,107.631462 376.496704,109.002792 
	C378.254120,110.761505 377.323700,112.303909 376.311707,114.299171 
	C374.044830,118.768623 375.706360,123.762962 375.262939,129.008789 
z"/>
<path fill="#000000" opacity="1.000000" stroke="none" 
	d="
M72.458344,15.490246 
	C79.095940,18.609282 85.260506,21.902874 92.236870,23.147915 
	C94.532181,23.557550 96.500458,24.758358 96.055283,27.466482 
	C95.577499,30.372984 93.378960,31.055065 90.768295,30.471949 
	C88.347427,29.931223 85.892937,29.417366 83.574547,28.562666 
	C73.117958,24.707726 63.259350,19.611715 53.800362,13.748562 
	C51.786816,12.500465 49.716885,10.783463 51.482628,8.104609 
	C53.082745,5.677031 55.654442,6.243268 57.763367,7.342205 
	C62.618877,9.872354 67.346901,12.647145 72.458344,15.490246 
z"/>
</svg>